<svg width="1057" height="1249" viewBox="0 0 1057 1249" fill="none" xmlns="http://www.w3.org/2000/svg">
<path fill-rule="evenodd" clip-rule="evenodd" d="M0.578927 980.969C-3.59407 1036.77 14.9829 1098.55 50.1519 1145.83C60.7809 1160.12 86.0569 1185.2 101.454 1196.74C144.614 1229.07 193.236 1246.37 247.231 1248.59C280.866 1249.98 307.934 1244.39 336.731 1230.12C381.466 1207.95 432.958 1170.98 501.144 1112.09C516.496 1098.83 529.37 1087.98 529.753 1087.98C530.137 1087.98 537.281 1095.39 545.63 1104.44C587.47 1149.79 636.158 1187.18 688.231 1213.94C726.451 1233.59 755.338 1243.79 781.705 1246.96C793.946 1248.44 822.372 1248.2 835.731 1246.52C874.48 1241.63 913.199 1229.41 944.183 1212.27C963.672 1201.5 978.301 1190.48 995.55 1173.57C1055.08 1115.25 1056.7 1040.5 1056.7 952.883V0L518.342 367.5L0.578927 0V980.969ZM947.116 1119.2C970.641 1096.18 984.171 1069.9 989.29 1037.26C991.221 1024.94 991.089 1004.11 989.29 987.9V125.5L518.342 458.5L73.6079 125.5V1009.63C76.0909 1035.64 81.6649 1055.36 92.3389 1075.9C99.7579 1090.17 104.734 1097.44 116.311 1110.89C147.624 1147.27 191.52 1169.87 240.971 1175.08C257.765 1176.85 279.012 1174.39 293.41 1169C318.468 1159.63 384.496 1115.51 427.731 1079.25C445.893 1064.02 471.313 1040.55 477.138 1033.64L481.223 1028.79L478.105 1023.14C476.39 1020.03 465.19 1003.53 453.217 986.483C432.185 956.535 412.986 927.978 393.893 898.242C356.926 840.668 342.325 808.103 335.04 766.983C331.714 748.209 331.281 717.234 334.09 698.983C340.523 657.178 354.077 625.873 378.142 597.24C391.699 581.11 403.518 570.809 424.091 557.194C470.258 526.641 519.402 516.767 572.148 527.447C610.727 535.258 640.785 551.139 667.131 577.628C696.876 607.537 711.972 638.336 720.972 687.483C722.833 697.644 723.175 703.161 723.2 723.483C723.234 750.078 722.661 754.316 714.742 785.983C696.097 860.546 650.067 947.533 593.89 1014.37C588.368 1020.94 583.154 1028.21 582.23 1030.62L580.559 1035L599.487 1055.24C620.784 1078.02 632.349 1088.93 651.231 1104.09C679.988 1127.17 711.481 1145.97 747.889 1161.8C770.509 1171.63 785.93 1174.98 808.586 1174.98C861.269 1174.98 910.248 1155.26 947.116 1119.2ZM596.757 613.841C586.546 607.427 578.768 604.199 564.213 600.336C555.377 597.991 552.049 597.654 535.231 597.4C514.837 597.092 510.029 597.699 494.731 602.506C475.972 608.402 458.642 619.078 443.657 633.969C425.824 651.691 414.942 671.13 408.101 697.483C405.411 707.845 405.248 709.643 405.29 728.483C405.33 746.522 405.602 749.683 408.068 760.723C412.024 778.44 417.722 794.253 426.793 812.687C433.687 826.697 441.089 838.341 481.459 898.687C507.14 937.075 529.069 969.926 530.191 971.691C531.313 973.455 532.484 974.917 532.793 974.941C533.929 975.026 567.846 929.033 577.008 914.983C615.018 856.693 638.781 801.57 647.922 750.483C650.724 734.821 650.926 708.84 648.349 695.609C641.371 659.787 622.64 630.102 596.757 613.841Z" fill="black"/>
</svg>
