<svg width="3295" height="1249" viewBox="0 0 3295 1249" fill="none" xmlns="http://www.w3.org/2000/svg">
<path fill-rule="evenodd" clip-rule="evenodd" d="M0.578927 980.969C-3.59407 1036.77 14.9829 1098.55 50.1519 1145.83C60.7809 1160.12 86.0569 1185.2 101.454 1196.74C144.614 1229.07 193.236 1246.37 247.231 1248.59C280.866 1249.98 307.934 1244.39 336.731 1230.12C381.466 1207.95 432.958 1170.98 501.144 1112.09C516.496 1098.83 529.37 1087.98 529.753 1087.98C530.137 1087.98 537.281 1095.39 545.63 1104.44C587.47 1149.79 636.158 1187.18 688.231 1213.94C726.451 1233.59 755.338 1243.79 781.705 1246.96C793.946 1248.44 822.372 1248.2 835.731 1246.52C874.48 1241.63 913.199 1229.41 944.183 1212.27C963.672 1201.5 978.301 1190.48 995.55 1173.57C1055.08 1115.25 1056.7 1040.5 1056.7 952.883V0L518.342 367.5L0.578927 0V980.969ZM947.116 1119.2C970.641 1096.18 984.171 1069.9 989.29 1037.26C991.221 1024.94 991.089 1004.11 989.29 987.9V125.5L518.342 458.5L73.6079 125.5V1009.63C76.0909 1035.64 81.6649 1055.36 92.3389 1075.9C99.7579 1090.17 104.734 1097.44 116.311 1110.89C147.624 1147.27 191.52 1169.87 240.971 1175.08C257.765 1176.85 279.012 1174.39 293.41 1169C318.468 1159.63 384.496 1115.51 427.731 1079.25C445.893 1064.02 471.313 1040.55 477.138 1033.64L481.223 1028.79L478.105 1023.14C476.39 1020.03 465.19 1003.53 453.217 986.483C432.185 956.535 412.986 927.978 393.893 898.242C356.926 840.668 342.325 808.103 335.04 766.983C331.714 748.209 331.281 717.234 334.09 698.983C340.523 657.178 354.077 625.873 378.142 597.24C391.699 581.11 403.518 570.809 424.091 557.194C470.258 526.641 519.402 516.767 572.148 527.447C610.727 535.258 640.785 551.139 667.131 577.628C696.876 607.537 711.972 638.336 720.972 687.483C722.833 697.644 723.175 703.161 723.2 723.483C723.234 750.078 722.661 754.316 714.742 785.983C696.097 860.546 650.067 947.533 593.89 1014.37C588.368 1020.94 583.154 1028.21 582.23 1030.62L580.559 1035L599.487 1055.24C620.784 1078.02 632.349 1088.93 651.231 1104.09C679.988 1127.17 711.481 1145.97 747.889 1161.8C770.509 1171.63 785.93 1174.98 808.586 1174.98C861.269 1174.98 910.248 1155.26 947.116 1119.2ZM596.757 613.841C586.546 607.427 578.768 604.199 564.213 600.336C555.377 597.991 552.049 597.654 535.231 597.4C514.837 597.092 510.029 597.699 494.731 602.506C475.972 608.402 458.642 619.078 443.657 633.969C425.824 651.691 414.942 671.13 408.101 697.483C405.411 707.845 405.248 709.643 405.29 728.483C405.33 746.522 405.602 749.683 408.068 760.723C412.024 778.44 417.722 794.253 426.793 812.687C433.687 826.697 441.089 838.341 481.459 898.687C507.14 937.075 529.069 969.926 530.191 971.691C531.313 973.455 532.484 974.917 532.793 974.941C533.929 975.026 567.846 929.033 577.008 914.983C615.018 856.693 638.781 801.57 647.922 750.483C650.724 734.821 650.926 708.84 648.349 695.609C641.371 659.787 622.64 630.102 596.757 613.841Z" fill="black"/>
<path d="M1488.28 602.794C1488.9 612.702 1489.21 622.145 1489.21 631.123C1489.21 639.792 1488.9 649.08 1488.28 658.987C1488.28 662.702 1488.28 666.882 1488.28 671.526C1488.28 676.17 1487.97 680.659 1487.35 684.994C1486.73 689.328 1485.65 693.353 1484.1 697.068C1482.55 700.783 1480.23 703.724 1477.14 705.892C1473.42 708.368 1469.24 710.071 1464.6 711C1459.95 711.619 1455.62 711.31 1451.59 710.071C1447.57 708.833 1444.01 706.511 1440.91 703.105C1438.13 699.7 1436.58 694.901 1436.27 688.709C1435.34 674.467 1434.88 660.225 1434.88 645.984C1434.88 638.863 1434.72 632.052 1434.41 625.55C1434.41 619.049 1434.57 609.915 1434.88 598.15C1434.88 592.268 1434.41 585.612 1433.48 578.181C1432.55 570.441 1430.23 565.023 1426.52 561.927C1423.73 559.45 1420.63 558.057 1417.23 557.748C1413.82 557.128 1410.42 557.438 1407.01 558.676C1403.92 559.915 1401.13 562.237 1398.65 565.642C1396.18 568.738 1394.47 572.763 1393.54 577.717C1393.54 581.742 1393.39 585.921 1393.08 590.256C1393.08 594.28 1393.23 598.15 1393.54 601.866C1393.85 611.773 1394.01 621.216 1394.01 630.194C1394.01 638.863 1393.85 648.151 1393.54 658.058C1393.23 662.083 1393.08 666.417 1393.08 671.061C1393.39 675.705 1393.39 680.35 1393.08 684.994C1392.77 689.328 1391.84 693.353 1390.29 697.068C1389.05 700.783 1386.73 703.724 1383.33 705.892C1379.61 708.368 1375.59 709.916 1371.25 710.536C1367.23 710.845 1363.36 710.226 1359.64 708.678C1356.24 706.82 1353.14 704.034 1350.35 700.319C1347.88 696.604 1346.48 691.65 1346.17 685.458C1345.56 678.337 1345.09 671.835 1344.78 665.953C1344.78 659.761 1344.78 653.259 1344.78 646.448C1344.78 639.327 1344.94 632.052 1345.25 624.621C1345.56 616.881 1345.4 609.451 1344.78 602.33C1344.78 600.163 1344.63 597.686 1344.32 594.9C1344.32 591.804 1344.16 588.708 1343.85 585.612C1343.85 582.516 1343.54 579.574 1342.92 576.788C1342.61 573.692 1342 571.215 1341.07 569.358C1338.59 565.023 1334.1 562.237 1327.6 560.998C1321.41 559.76 1316.14 560.224 1311.81 562.392C1307.47 564.559 1304.22 567.345 1302.06 570.751C1299.89 574.156 1298.34 577.872 1297.41 581.896C1296.48 585.921 1296.02 590.256 1296.02 594.9C1296.02 599.234 1296.02 603.414 1296.02 607.439C1296.02 627.563 1296.02 645.055 1296.02 659.916C1296.33 674.467 1294.78 686.232 1291.38 695.21C1289.83 699.854 1286.58 703.415 1281.62 705.892C1276.98 708.368 1271.87 709.607 1266.3 709.607C1261.03 709.607 1256.08 708.368 1251.44 705.892C1246.79 703.415 1243.7 699.545 1242.15 694.282C1241.22 690.876 1240.29 686.077 1239.36 679.885C1238.74 673.383 1238.28 666.263 1237.97 658.523C1237.66 650.783 1237.5 643.043 1237.5 635.303C1237.5 627.253 1237.5 619.977 1237.5 613.476V546.602C1237.2 539.481 1237.04 531.741 1237.04 523.382C1237.04 515.023 1238.28 507.437 1240.76 500.626C1242.92 494.744 1246.33 491.029 1250.97 489.481C1255.62 487.623 1260.42 486.849 1265.37 487.159C1270.94 487.159 1275.28 488.707 1278.37 491.803C1281.78 494.589 1284.25 498.149 1285.8 502.484C1287.35 506.509 1288.28 511.153 1288.59 516.416C1288.9 521.369 1289.21 526.168 1289.52 530.812C1292.92 523.072 1296.95 516.725 1301.59 511.772C1306.55 506.509 1313.51 503.103 1322.49 501.555C1345.4 497.221 1363.67 503.103 1377.29 519.202C1383.48 513.01 1391.38 507.902 1400.97 503.877C1408.4 501.091 1415.99 499.852 1423.73 500.162C1431.47 500.162 1438.75 501.555 1445.56 504.341C1452.68 507.128 1459.02 511.153 1464.6 516.416C1470.48 521.679 1475.12 528.026 1478.53 535.456C1483.17 545.364 1485.8 556.354 1486.42 568.429C1487.04 580.503 1487.66 591.958 1488.28 602.794ZM1580.71 515.487C1590 510.843 1599.75 507.592 1609.97 505.735C1620.18 503.567 1630.24 503.103 1640.15 504.341C1650.37 505.27 1660.12 507.902 1669.41 512.236C1678.7 516.261 1687.37 522.143 1695.42 529.883C1703.47 537.933 1709.66 546.757 1713.99 556.354C1718.33 565.952 1721.42 576.633 1723.28 588.398C1724.52 596.448 1726.53 603.878 1729.32 610.689C1732.1 617.501 1735.04 624.312 1738.14 631.123C1741.55 637.934 1744.64 644.745 1747.43 651.557C1750.52 658.368 1753 665.489 1754.86 672.919C1756.41 680.04 1755.79 687.006 1753 693.817C1750.52 700.319 1745.26 704.344 1737.21 705.892C1732.57 706.82 1728.08 706.511 1723.74 704.963C1719.72 703.105 1716 700.628 1712.6 697.532C1709.19 694.127 1706.1 690.566 1703.31 686.851C1700.83 682.826 1698.51 679.111 1696.34 675.705C1689.22 684.994 1681.48 692.269 1673.12 697.532C1664.76 702.486 1654.7 705.737 1642.94 707.285C1633.03 708.523 1623.59 708.833 1614.61 708.214C1605.63 707.594 1596.03 705.892 1585.82 703.105C1572.5 699.7 1561.51 693.817 1552.84 685.458C1544.49 676.789 1537.98 666.882 1533.34 655.736C1529 644.281 1526.68 632.052 1526.37 619.049C1526.06 606.045 1527.61 593.197 1531.02 580.503C1535.35 563.785 1541.85 550.162 1550.52 539.636C1559.19 529.109 1569.25 521.06 1580.71 515.487ZM1592.32 569.822C1587.98 574.156 1584.58 579.265 1582.1 585.147C1579.62 591.03 1578.08 597.222 1577.46 603.723C1577.15 610.225 1577.77 616.727 1579.32 623.228C1580.86 629.73 1583.34 635.457 1586.75 640.411C1589.84 644.745 1595.1 648.461 1602.54 651.557C1609.97 654.343 1617.71 656.046 1625.76 656.665C1635.04 657.284 1643.09 654.807 1649.9 649.235C1657.02 643.662 1662.29 636.696 1665.69 628.337C1669.41 619.668 1671.11 610.535 1670.8 600.937C1670.49 591.03 1667.86 582.051 1662.91 574.002C1659.19 568.119 1654.24 563.785 1648.05 560.998C1642.16 558.212 1635.82 556.819 1629.01 556.819C1622.19 556.509 1615.38 557.593 1608.57 560.07C1602.07 562.237 1596.65 565.488 1592.32 569.822ZM1885.91 604.188C1892.72 611.309 1897.68 616.572 1900.77 619.977C1904.18 623.073 1906.5 625.395 1907.74 626.943C1909.29 628.491 1910.37 629.42 1910.99 629.73C1911.61 630.039 1912.69 630.968 1914.24 632.516C1915.79 634.064 1918.26 636.541 1921.67 639.947C1925.08 643.043 1930.18 648.151 1936.99 655.272C1942.57 660.845 1947.06 667.346 1950.46 674.777C1954.18 681.898 1953.87 689.638 1949.53 697.997C1947.06 702.331 1944.27 705.427 1941.17 707.285C1938.08 708.833 1934.67 709.452 1930.96 709.142C1927.55 708.833 1923.84 707.749 1919.81 705.892C1916.1 704.034 1912.38 701.712 1908.67 698.926C1901.55 693.662 1894.73 687.625 1888.23 680.814C1881.73 673.693 1876.47 668.275 1872.44 664.56C1869.66 661.773 1867.95 659.916 1867.33 658.987C1866.72 658.368 1866.1 657.903 1865.48 657.594C1864.86 656.975 1864.24 656.355 1863.62 655.736C1861.45 653.569 1859.13 651.402 1856.65 649.235C1854.18 647.067 1851.7 644.745 1849.22 642.269V660.38C1849.22 663.786 1849.38 666.263 1849.69 667.811C1849.69 670.907 1849.53 673.229 1849.22 674.777C1848.29 678.182 1847.83 681.433 1847.83 684.529C1847.52 686.077 1847.21 687.625 1846.9 689.173C1846.59 690.412 1846.13 691.805 1845.51 693.353C1845.2 693.972 1844.89 694.436 1844.58 694.746C1844.58 695.056 1844.58 695.52 1844.58 696.139C1844.27 696.758 1843.96 697.223 1843.65 697.532C1843.65 697.842 1843.5 698.306 1843.19 698.926C1841.64 702.022 1839.16 704.963 1835.76 707.749C1829.87 711.155 1822.6 712.084 1813.93 710.536C1809.28 709.607 1805.72 707.904 1803.25 705.427C1800.46 703.57 1798.6 700.938 1797.67 697.532C1797.06 695.984 1796.44 694.436 1795.82 692.888C1795.51 691.031 1795.04 689.328 1794.42 687.78C1793.8 686.232 1793.49 684.839 1793.49 683.6C1793.49 682.052 1793.49 680.814 1793.49 679.885V415.641C1793.49 413.783 1793.49 411.926 1793.49 410.068C1793.49 408.21 1793.65 406.353 1793.96 404.495C1794.27 402.638 1794.58 400.935 1794.89 399.387C1795.51 397.529 1796.13 395.826 1796.75 394.278C1797.98 391.182 1799.53 388.705 1801.39 386.848C1802.94 385.3 1804.49 384.216 1806.03 383.597C1807.89 382.668 1809.59 381.894 1811.14 381.275C1812.69 380.965 1814.39 380.811 1816.25 380.811C1818.42 380.501 1820.43 380.346 1822.29 380.346C1826.62 380.346 1830.96 381.585 1835.29 384.061C1839.32 386.848 1842.26 390.408 1844.11 394.743C1846.59 400.625 1847.83 406.353 1847.83 411.926C1848.14 415.022 1848.45 419.82 1848.76 426.322C1849.07 432.514 1849.22 437.158 1849.22 440.254V442.112C1849.53 452.328 1849.69 462.081 1849.69 471.369C1849.69 480.657 1849.69 490.719 1849.69 501.555C1849.38 512.391 1849.22 522.763 1849.22 532.67C1849.22 542.268 1849.22 551.865 1849.22 561.463V566.571C1851.7 564.094 1854.18 561.772 1856.65 559.605C1859.13 557.438 1861.45 555.116 1863.62 552.639C1864.86 551.71 1866.1 550.627 1867.33 549.388L1872.44 544.28C1876.47 540.255 1881.73 534.837 1888.23 528.026C1894.73 520.905 1901.55 514.713 1908.67 509.45C1916.41 503.877 1923.84 500.471 1930.96 499.233C1938.39 497.995 1944.58 501.71 1949.53 510.379C1953.87 518.738 1954.18 526.633 1950.46 534.063C1947.06 541.184 1942.57 547.84 1936.99 554.032C1930.18 561.153 1925.08 566.416 1921.67 569.822C1918.26 572.918 1915.79 575.24 1914.24 576.788C1912.69 578.026 1911.61 578.8 1910.99 579.11C1910.37 579.42 1909.29 580.348 1907.74 581.896C1906.5 583.135 1904.18 585.457 1900.77 588.862C1897.68 591.958 1892.72 597.067 1885.91 604.188ZM2151 647.377C2154.72 646.448 2158.43 645.829 2162.15 645.519C2166.17 645.21 2169.73 645.674 2172.83 646.913C2176.24 648.151 2179.02 650.318 2181.19 653.414C2183.36 656.201 2184.44 660.225 2184.44 665.489C2184.44 669.204 2183.51 672.764 2181.65 676.17C2179.8 679.576 2177.47 682.672 2174.69 685.458C2171.9 688.244 2168.81 690.721 2165.4 692.888C2161.99 694.746 2158.74 696.294 2155.65 697.532C2146.67 701.557 2136.3 704.653 2124.53 706.82C2113.08 708.988 2101.16 709.762 2088.77 709.142C2072.06 708.523 2055.96 705.272 2040.48 699.39C2025.31 693.198 2013.39 683.136 2004.72 669.204C1996.67 655.581 1991.87 640.411 1990.32 623.693C1988.77 606.974 1989.55 591.184 1992.64 576.324C1996.05 558.367 2001.78 543.816 2009.83 532.67C2018.19 521.215 2028.09 512.081 2039.55 505.27C2053.48 497.221 2069.11 493.041 2086.45 492.731C2103.79 492.422 2120.35 495.827 2136.14 502.948C2146.67 507.592 2156.11 513.939 2164.47 521.989C2172.83 529.729 2179.18 539.172 2183.51 550.317C2184.75 553.104 2185.68 556.509 2186.3 560.534C2187.23 564.559 2187.85 568.893 2188.16 573.537C2188.47 577.872 2188.47 582.206 2188.16 586.54C2187.85 590.875 2187.07 594.745 2185.83 598.15C2183.98 603.723 2181.65 608.058 2178.87 611.154C2176.08 614.25 2172.52 616.572 2168.19 618.12C2163.85 619.668 2158.59 620.751 2152.4 621.371C2146.51 621.68 2139.39 621.99 2131.03 622.299C2123.6 622.609 2116.64 622.764 2110.14 622.764C2103.64 622.764 2096.98 622.764 2090.17 622.764C2083.36 622.454 2076.24 622.299 2068.8 622.299C2061.68 621.99 2053.63 621.68 2044.66 621.371C2043.73 627.563 2044.5 632.981 2046.98 637.625C2049.76 641.959 2053.48 645.674 2058.12 648.77C2062.77 651.557 2068.03 653.724 2073.91 655.272C2079.8 656.82 2085.52 657.749 2091.1 658.058C2101.62 658.677 2111.68 657.903 2121.28 655.736C2130.88 653.259 2140.79 650.473 2151 647.377ZM2131.03 557.283C2125.15 550.472 2118.96 545.518 2112.46 542.422C2107.51 540.255 2102.24 539.326 2096.67 539.636C2091.41 539.636 2086.3 540.41 2081.34 541.958C2072.37 544.125 2064.78 548.769 2058.59 555.89C2057.97 556.509 2056.89 558.057 2055.34 560.534C2053.79 562.701 2052.24 565.023 2050.69 567.5C2049.45 569.977 2048.53 572.299 2047.91 574.466C2047.29 576.633 2047.6 577.717 2048.84 577.717H2139.86C2139.55 573.382 2138.77 569.822 2137.54 567.036C2136.3 563.94 2134.13 560.689 2131.03 557.283ZM2226.16 546.602C2226.16 542.887 2226.16 538.707 2226.16 534.063C2226.16 529.109 2226.32 524.156 2226.63 519.202C2226.93 513.939 2227.4 508.985 2228.02 504.341C2228.95 499.388 2230.19 495.053 2231.73 491.338C2234.21 485.765 2238.08 482.05 2243.34 480.193C2248.61 478.025 2254.33 477.097 2260.53 477.406C2267.03 477.406 2272.14 478.49 2275.85 480.657C2279.57 482.824 2282.35 485.765 2284.21 489.481C2286.07 492.886 2287.15 496.911 2287.46 501.555C2288.08 505.889 2288.39 510.533 2288.39 515.487C2291.18 510.533 2294.89 506.509 2299.54 503.413C2304.49 500.317 2309.44 497.84 2314.4 495.982C2319.35 494.125 2323.84 492.886 2327.86 492.267C2331.89 491.338 2334.21 490.874 2334.83 490.874C2342.57 490.255 2349.54 490.1 2355.73 490.409C2362.23 490.719 2369.35 492.112 2377.09 494.589C2382.04 496.447 2387.15 499.078 2392.42 502.484C2397.68 505.58 2402.32 509.295 2406.35 513.629C2410.37 517.964 2413 522.763 2414.24 528.026C2415.79 532.979 2415.17 538.243 2412.39 543.816C2408.05 551.556 2403.25 555.426 2397.99 555.426C2392.73 555.116 2387 554.187 2380.81 552.639C2377.4 552.02 2373.38 550.627 2368.73 548.46C2364.09 546.292 2360.06 544.899 2356.66 544.28C2346.13 542.732 2336.84 543.506 2328.79 546.602C2320.74 549.698 2313.78 553.413 2307.9 557.748C2301.08 563.011 2295.2 569.048 2290.25 575.859V642.733C2290.25 651.092 2290.09 659.761 2289.78 668.739C2289.78 677.718 2288.55 685.922 2286.07 693.353C2283.9 700.474 2280.03 706.356 2274.46 711C2269.2 715.334 2261.46 717.192 2251.24 716.573C2245.67 716.263 2240.71 713.632 2236.38 708.678C2232.04 703.415 2229.41 698.306 2228.48 693.353C2227.86 688.709 2227.4 683.136 2227.09 676.634C2226.78 670.133 2226.47 663.321 2226.16 656.201C2226.16 649.08 2226.16 641.959 2226.16 634.838C2226.16 627.408 2226.16 620.597 2226.16 614.405V546.602ZM2543.49 629.265C2537.61 625.55 2530.95 622.609 2523.52 620.442C2516.4 618.275 2508.97 616.262 2501.23 614.405C2493.8 612.547 2486.53 610.535 2479.4 608.367C2472.28 605.89 2465.78 602.485 2459.9 598.15C2447.21 588.553 2439.78 576.788 2437.61 562.856C2435.75 548.614 2438.85 534.373 2446.9 520.131C2451.23 512.701 2456.96 506.663 2464.08 502.019C2471.2 497.066 2478.94 493.351 2487.3 490.874C2495.97 488.087 2504.79 486.539 2513.77 486.23C2522.75 485.92 2531.26 486.385 2539.31 487.623C2544.58 488.552 2550.15 489.945 2556.03 491.803C2561.91 493.351 2567.33 495.518 2572.28 498.304C2577.55 501.091 2582.19 504.651 2586.22 508.985C2590.55 513.01 2593.65 518.119 2595.5 524.311C2596.74 528.335 2596.9 532.205 2595.97 535.921C2595.35 539.636 2593.8 542.732 2591.33 545.209C2589.16 547.686 2586.22 549.543 2582.5 550.782C2579.1 552.02 2575.38 552.33 2571.36 551.71C2566.71 550.782 2562.38 549.388 2558.35 547.531C2554.33 545.673 2550.3 543.661 2546.28 541.494C2542.25 539.326 2538.07 537.469 2533.74 535.921C2529.71 534.373 2525.38 533.599 2520.74 533.599C2513.62 533.289 2507.73 534.527 2503.09 537.314C2498.45 540.1 2495.19 543.506 2493.34 547.531C2491.79 551.556 2491.94 555.89 2493.8 560.534C2495.97 565.178 2500.3 569.203 2506.8 572.608C2512.69 575.704 2519.19 578.181 2526.31 580.039C2533.43 581.896 2540.4 583.754 2547.21 585.612C2554.33 587.469 2561.14 589.636 2567.64 592.113C2574.45 594.59 2580.49 597.996 2585.75 602.33C2595.97 610.689 2602.16 620.442 2604.33 631.587C2606.81 642.733 2606.19 653.724 2602.47 664.56C2598.76 675.396 2592.25 684.994 2582.97 693.353C2573.99 701.712 2563.31 707.285 2550.92 710.071C2541.94 711.929 2532.19 712.858 2521.67 712.858C2511.45 712.858 2501.23 711.774 2491.01 709.607C2481.11 707.44 2471.51 704.034 2462.22 699.39C2453.24 694.746 2445.66 688.864 2439.47 681.743C2435.13 676.789 2432.81 671.216 2432.5 665.024C2432.5 658.523 2433.74 652.95 2436.22 648.306C2439 643.352 2442.87 639.947 2447.83 638.089C2452.78 636.231 2458.35 637.315 2464.54 641.34C2469.5 644.745 2475.38 648.151 2482.19 651.557C2489 654.653 2495.81 657.129 2502.62 658.987C2509.44 660.845 2515.94 661.773 2522.13 661.773C2528.63 661.773 2534.2 660.38 2538.85 657.594C2545.66 653.259 2549.22 648.306 2549.53 642.733C2549.84 636.851 2547.83 632.361 2543.49 629.265ZM2644.31 417.498C2644.93 406.353 2648.34 397.374 2654.53 390.563C2661.03 383.752 2670.17 381.894 2681.93 384.99C2687.5 386.538 2691.53 388.86 2694.01 391.956C2696.79 395.052 2698.65 398.768 2699.58 403.102C2700.82 407.127 2701.44 411.616 2701.44 416.57C2701.44 421.214 2701.44 425.858 2701.44 430.502V494.589C2701.13 497.066 2700.97 499.543 2700.97 502.019C2701.28 504.187 2701.44 506.199 2701.44 508.057V514.094H2713.05C2716.45 514.094 2719.7 514.094 2722.8 514.094C2726.2 514.094 2729.14 513.939 2731.62 513.629C2748.65 513.629 2763.2 516.106 2775.28 521.06C2787.66 526.013 2797.57 532.979 2805 541.958C2812.74 550.627 2818.31 561.153 2821.72 573.537C2825.43 585.612 2827.13 598.924 2826.82 613.476C2826.51 630.813 2823.73 645.674 2818.46 658.058C2813.2 670.442 2805.77 680.659 2796.17 688.709C2786.58 696.758 2774.97 702.796 2761.34 706.82C2748.03 710.536 2733.01 712.393 2716.3 712.393C2697.1 712.393 2682.55 712.238 2672.64 711.929C2662.74 711.619 2655.61 708.833 2651.28 703.57C2647.26 698.306 2645.09 689.173 2644.78 676.17C2644.47 663.167 2644.31 644.126 2644.31 619.049C2644.31 594.9 2644.31 571.06 2644.31 547.531C2644.62 524.001 2644.62 500.317 2644.31 476.477C2644.31 473.381 2644.16 470.131 2643.85 466.725C2643.85 463.319 2643.85 459.449 2643.85 455.115C2643.85 450.78 2643.85 445.672 2643.85 439.79C2643.85 433.598 2644 426.167 2644.31 417.498ZM2731.16 660.38C2748.19 659.451 2759.95 654.807 2766.45 646.448C2769.86 641.804 2772.49 636.231 2774.35 629.73C2776.2 623.228 2776.98 616.727 2776.67 610.225C2776.36 603.723 2774.97 597.531 2772.49 591.649C2770.32 585.457 2766.76 580.348 2761.81 576.324C2757.47 572.608 2753.14 569.977 2748.8 568.429C2744.47 566.571 2739.98 565.488 2735.34 565.178C2730.69 564.559 2725.74 564.404 2720.48 564.714C2715.21 564.714 2709.18 564.868 2702.36 565.178V620.906L2701.44 659.451C2704.53 659.761 2707.78 660.071 2711.19 660.38C2717.07 660.999 2723.73 660.999 2731.16 660.38ZM2864.71 545.209C2864.71 538.088 2864.56 530.503 2864.25 522.453C2864.25 514.403 2865.64 507.128 2868.43 500.626C2870.9 494.744 2874.93 490.564 2880.5 488.087C2886.38 485.301 2892.11 484.682 2897.69 486.23C2903.26 487.159 2907.59 488.861 2910.69 491.338C2913.78 493.815 2915.95 496.756 2917.19 500.162C2918.74 503.258 2919.67 506.973 2919.98 511.307C2920.29 515.332 2920.6 519.357 2920.91 523.382C2924 517.809 2927.87 513.32 2932.52 509.914C2937.16 506.509 2941.96 503.722 2946.91 501.555C2951.87 499.388 2956.51 497.84 2960.84 496.911C2965.49 495.982 2969.05 495.518 2971.52 495.518C2983.29 495.518 2994.9 498.149 3006.35 503.413C3018.12 508.366 3027.87 515.487 3035.61 524.775C3039.95 530.348 3043.2 536.23 3045.36 542.422C3047.84 548.305 3049.54 554.497 3050.47 560.998C3051.71 567.5 3052.49 574.156 3052.8 580.968C3053.1 587.469 3053.41 594.126 3053.72 600.937C3055.27 620.751 3055.27 640.411 3053.72 659.916C3053.41 663.941 3053.26 668.585 3053.26 673.848C3053.26 679.111 3052.8 684.374 3051.87 689.638C3051.25 694.591 3049.85 699.08 3047.69 703.105C3045.83 706.82 3042.58 709.142 3037.93 710.071C3031.43 711.619 3026.01 711.929 3021.68 711C3017.66 710.381 3014.4 708.988 3011.93 706.82C3009.45 704.653 3007.59 701.867 3006.35 698.461C3005.12 695.056 3004.03 691.186 3003.1 686.851C3002.48 683.446 3001.87 679.576 3001.25 675.241C3000.94 670.597 3000.63 665.953 3000.32 661.309C3000.32 656.665 3000.16 652.176 2999.85 647.841C2999.85 643.197 2999.85 639.018 2999.85 635.303C2999.85 629.42 2999.7 622.919 2999.39 615.798C2999.08 608.677 2999.08 602.02 2999.39 595.828C2999.39 581.277 2995.52 570.286 2987.78 562.856C2980.35 555.116 2970.13 551.865 2957.13 553.104C2947.22 554.342 2938.55 558.367 2931.12 565.178C2923.69 571.68 2920.13 580.194 2920.44 590.72C2920.44 594.745 2920.44 598.46 2920.44 601.866C2920.44 605.271 2920.29 608.677 2919.98 612.083C2919.98 615.488 2919.98 619.203 2919.98 623.228C2919.98 627.253 2919.98 631.742 2919.98 636.696C2919.98 646.913 2919.98 657.749 2919.98 669.204C2919.98 680.35 2918.58 689.483 2915.8 696.604C2913.32 704.034 2909.14 709.142 2903.26 711.929C2897.38 714.715 2890.41 713.941 2882.36 709.607C2878.95 707.749 2876.17 705.272 2874 702.176C2872.14 698.771 2870.59 695.21 2869.36 691.495C2868.43 687.78 2867.81 684.065 2867.5 680.35C2867.19 676.325 2866.88 672.609 2866.57 669.204C2865.64 658.987 2865.02 649.544 2864.71 640.875C2864.71 631.897 2864.71 622.299 2864.71 612.083V545.209ZM3093.3 417.498C3093.92 406.353 3097.32 397.374 3103.51 390.563C3110.01 383.752 3119.15 381.894 3130.91 384.99C3136.49 386.538 3140.51 388.86 3142.99 391.956C3145.77 395.052 3147.63 398.768 3148.56 403.102C3149.8 407.127 3150.42 411.616 3150.42 416.57C3150.42 421.214 3150.42 425.858 3150.42 430.502V494.589C3150.11 497.066 3149.95 499.543 3149.95 502.019C3150.26 504.187 3150.42 506.199 3150.42 508.057V514.094H3162.03C3165.43 514.094 3168.68 514.094 3171.78 514.094C3175.19 514.094 3178.13 513.939 3180.6 513.629C3197.63 513.629 3212.18 516.106 3224.26 521.06C3236.64 526.013 3246.55 532.979 3253.98 541.958C3261.72 550.627 3267.29 561.153 3270.7 573.537C3274.41 585.612 3276.12 598.924 3275.81 613.476C3275.5 630.813 3272.71 645.674 3267.45 658.058C3262.18 670.442 3254.75 680.659 3245.16 688.709C3235.56 696.758 3223.95 702.796 3210.33 706.82C3197.01 710.536 3182 712.393 3165.28 712.393C3146.08 712.393 3131.53 712.238 3121.62 711.929C3111.72 711.619 3104.6 708.833 3100.26 703.57C3096.24 698.306 3094.07 689.173 3093.76 676.17C3093.45 663.167 3093.3 644.126 3093.3 619.049C3093.3 594.9 3093.3 571.06 3093.3 547.531C3093.61 524.001 3093.61 500.317 3093.3 476.477C3093.3 473.381 3093.14 470.131 3092.83 466.725C3092.83 463.319 3092.83 459.449 3092.83 455.115C3092.83 450.78 3092.83 445.672 3092.83 439.79C3092.83 433.598 3092.99 426.167 3093.3 417.498ZM3180.14 660.38C3197.17 659.451 3208.93 654.807 3215.43 646.448C3218.84 641.804 3221.47 636.231 3223.33 629.73C3225.19 623.228 3225.96 616.727 3225.65 610.225C3225.34 603.723 3223.95 597.531 3221.47 591.649C3219.3 585.457 3215.74 580.348 3210.79 576.324C3206.46 572.608 3202.12 569.977 3197.79 568.429C3193.45 566.571 3188.96 565.488 3184.32 565.178C3179.67 564.559 3174.72 564.404 3169.46 564.714C3164.19 564.714 3158.16 564.868 3151.35 565.178V620.906L3150.42 659.451C3153.51 659.761 3156.76 660.071 3160.17 660.38C3166.05 660.999 3172.71 660.999 3180.14 660.38Z" fill="black"/>
</svg>
